<?xml version="1.0" standalone="no"?>
<!DOCTYPE svg PUBLIC "-//W3C//DTD SVG 20010904//EN"
 "http://www.w3.org/TR/2001/REC-SVG-20010904/DTD/svg10.dtd">
<svg version="1.0" xmlns="http://www.w3.org/2000/svg"
 width="500.000000pt" height="500.000000pt" viewBox="0 0 500.000000 500.000000"
 preserveAspectRatio="xMidYMid meet">
<metadata>
Created by potrace 1.14, written by Peter Selinger 2001-2017
</metadata>
<g transform="translate(0.000000,500.000000) scale(0.100000,-0.100000)"
fill="#000000" stroke="none">
<path d="M415 4985 c-188 -35 -308 -125 -366 -275 -51 -132 -50 -66 -47 -2250
3 -1916 4 -2039 21 -2095 56 -190 158 -291 347 -342 61 -17 183 -18 2130 -18
1947 0 2069 1 2130 18 191 52 295 156 347 347 17 61 18 183 18 2130 0 1947 -1
2069 -18 2130 -51 189 -152 291 -342 347 -57 17 -178 18 -2105 20 -1648 1
-2059 -1 -2115 -12z m2434 -1869 c132 -34 232 -116 268 -219 21 -61 24 -190 5
-253 -30 -102 -118 -185 -242 -226 -62 -21 -86 -22 -472 -26 l-408 -3 0 -325
0 -324 -30 0 -30 0 0 701 0 701 423 -5 c352 -3 433 -7 486 -21z"/>
<path d="M2000 2765 l0 -306 413 3 c407 3 413 3 471 27 72 29 128 78 158 139
19 39 23 63 23 137 0 81 -3 96 -30 145 -34 62 -95 109 -178 137 -45 15 -108
18 -454 21 l-403 3 0 -306z"/>
</g>
</svg>
